<?xml version="1.0" encoding="UTF-8"?>
<svg xmlns="http://www.w3.org/2000/svg" width="93" height="60" viewBox="0 0 93 60" fill="none">
  <path d="M65.1465 51.1661H65.0065C64.9131 51.1661 64.8197 51.1427 64.7341 51.1036C64.6718 51.0645 64.6407 51.0254 64.6096 50.9785C64.5784 50.916 64.5629 50.7752 64.5629 50.5642V49.2821L65.9559 50.6502C66.0571 50.7596 66.1271 50.8221 66.1349 50.8534C66.1583 50.8925 66.166 50.9394 66.166 50.9785C66.166 51.0332 66.1427 51.0801 66.0882 51.1192C66.0415 51.1427 65.9559 51.1661 65.847 51.1661V51.2834H67.7537V51.1661C67.5824 51.1661 67.4112 51.1036 67.24 51.0254C67.0688 50.9394 66.8509 50.7752 66.6252 50.5251L65.1388 49.0554L65.7536 48.4534C66.1116 48.086 66.3139 47.8749 66.3606 47.8358C66.5085 47.6951 66.633 47.5935 66.7342 47.5466C66.8431 47.484 66.9209 47.4449 66.9988 47.4059C67.0688 47.3824 67.1544 47.3824 67.2322 47.3824V47.273H65.7614V47.3824H65.8548C65.9559 47.3824 66.0182 47.398 66.0649 47.4215C66.1116 47.4606 66.1427 47.5075 66.1427 47.5466C66.1427 47.6091 66.096 47.6717 66.0571 47.7498C65.9404 47.9296 65.5746 48.2892 64.9909 48.8208C64.7574 49.0319 64.6251 49.1492 64.5862 49.1961V47.9687C64.5862 47.7655 64.6018 47.6404 64.6329 47.5778C64.6563 47.5153 64.703 47.4684 64.7574 47.4293C64.8508 47.3902 64.9286 47.3668 65.0298 47.3668H65.1699V47.2573H63.4578V47.3668H63.5978C63.6912 47.3668 63.7768 47.3902 63.8702 47.4293C63.9403 47.4684 63.9714 47.5075 63.9948 47.5544C64.0259 47.6248 64.0337 47.7576 64.0337 47.9687V50.5563C64.0337 50.8065 64.0181 50.9472 63.9558 51.0098C63.8858 51.1114 63.7691 51.1505 63.6056 51.1505H63.4655V51.2677H65.1777V51.1505L65.1465 51.1661Z" fill="black"></path>
  <path d="M82.0267 51.1427C81.7777 51.1193 81.6143 51.0802 81.5442 51.0176C81.4664 50.9551 81.4353 50.8925 81.4353 50.8144C81.4353 50.7284 81.482 50.5798 81.5598 50.3766L81.9178 49.5714H83.8867L84.1902 50.2984C84.2914 50.5486 84.3381 50.7127 84.3381 50.8378C84.3381 50.916 84.2992 50.9785 84.2369 51.0489C84.1591 51.1036 84.0268 51.1349 83.8245 51.1505V51.2912H85.8401V51.1505C85.6456 51.1271 85.4821 51.088 85.3576 50.9864C85.2331 50.8847 85.1164 50.658 84.9685 50.3062L83.1863 46.0691H83.054L81.2641 50.2671C81.1162 50.6346 80.9528 50.8847 80.836 51.0098C80.7815 51.0723 80.6415 51.1114 80.4158 51.1583V51.2991H82.0345V51.1583L82.0267 51.1427ZM82.9217 47.2339L83.7856 49.2821H82.0267L82.9217 47.2339Z" fill="black"></path>
  <path d="M70.2129 51.166C70.0183 51.166 69.886 51.127 69.8238 51.0879C69.7693 51.041 69.746 50.9784 69.746 50.9237C69.746 50.8377 69.7693 50.7361 69.8471 50.5719L70.1117 49.9465H71.6604L71.9095 50.5094C71.9873 50.7126 72.034 50.8377 72.034 50.9237C72.034 51.0019 72.0029 51.0488 71.9484 51.1035C71.8939 51.1504 71.785 51.1739 71.6215 51.1739V51.2911H73.2091V51.1739C73.0457 51.1739 72.9134 51.127 72.8278 51.0488C72.7422 50.9706 72.641 50.7908 72.5165 50.5172L71.1234 47.1869H71.0223L69.6137 50.4937C69.4891 50.783 69.3724 50.9706 69.2712 51.0722C69.2323 51.1113 69.1234 51.1582 68.9521 51.1739V51.2911H70.2207V51.1739L70.2129 51.166ZM70.9055 48.1015L71.5904 49.7198H70.2207L70.9133 48.1015H70.9055Z" fill="black"></path>
  <path d="M78.0965 50.6503C78.4389 50.275 78.6101 49.8216 78.6101 49.2587C78.6101 48.8366 78.509 48.4848 78.3222 48.1486C78.1432 47.8359 77.8786 47.6092 77.5673 47.4685C77.256 47.3434 76.8046 47.2809 76.1976 47.2809H74.571V47.3903H74.7111C74.8746 47.3903 74.9757 47.4294 75.0536 47.5154C75.1158 47.578 75.1392 47.7421 75.1392 47.9923V50.5799C75.1392 50.8066 75.1158 50.9552 75.0691 51.0177C74.9913 51.1428 74.8746 51.1819 74.7111 51.1819H74.571V51.2991H76.361C77.1315 51.2991 77.7307 51.0881 78.0965 50.6581V50.6503ZM75.7073 51.0021V47.5936C75.933 47.531 76.1353 47.492 76.3143 47.492C76.789 47.492 77.1782 47.6561 77.4739 47.9845C77.7774 48.2972 77.9253 48.7271 77.9253 49.29C77.9253 49.8529 77.7774 50.2828 77.4739 50.5955C77.1704 50.9239 76.7968 51.088 76.3299 51.088C76.1664 51.088 75.9485 51.049 75.6995 51.0021H75.7073Z" fill="black"></path>
  <path d="M0.194336 0V60H92.8053V0H0.194336ZM4.03886 3.33811H22.7867L4.03886 47.1166V3.33811ZM32.1334 36.6332H12.4906L22.4599 13.5557L32.1412 36.6332H32.1334ZM37.2621 56.1694C37.0364 56.357 36.7484 56.5212 36.4138 56.6619H8.41258C7.85225 56.4743 7.42421 56.271 7.12848 56.0209C6.29576 55.372 5.86773 54.598 5.86773 53.7303C5.86773 52.6358 6.35802 50.9785 7.30748 48.7661L11.1831 39.7524H33.3164L36.7718 47.9531C37.908 50.6189 38.4683 52.5811 38.4683 53.8085C38.4683 54.7388 38.0714 55.5205 37.2698 56.1616L37.2621 56.1694ZM88.9452 56.6619H51.9008C51.0681 56.3492 50.3443 55.9192 49.7451 55.4033C48.4376 54.2619 46.9745 51.7915 45.3791 47.9609L26.6935 3.33811H88.953V56.6619H88.9452Z" fill="black"></path>
  <path d="M59.5976 51.1661H59.4419C59.2863 51.1661 59.1773 51.127 59.1073 51.041C59.0528 50.9785 59.0217 50.8143 59.0217 50.5642V49.4072H59.4419L60.8039 51.2834H61.8779V51.1661C61.6522 51.1427 61.4809 51.0957 61.3409 51.0019C61.2086 50.9159 61.0374 50.7518 60.8506 50.486L60.0256 49.329C60.3603 49.2508 60.6015 49.1257 60.765 48.9381C60.9206 48.7661 61.014 48.5628 61.014 48.2971C61.014 48.0703 60.9362 47.8827 60.8039 47.7107C60.656 47.5466 60.4848 47.4215 60.2902 47.3589C60.0801 47.2964 59.7688 47.2729 59.3408 47.2729H57.8777V47.3824H58.0333C58.1734 47.3824 58.2902 47.4215 58.368 47.5075C58.4225 47.57 58.4536 47.7342 58.4536 47.9843V50.572C58.4536 50.7987 58.438 50.9472 58.3913 51.0098C58.3213 51.1348 58.2045 51.1739 58.0333 51.1739H57.8777V51.2912H59.6054V51.1739L59.5976 51.1661ZM59.0139 47.5466C59.2085 47.5075 59.3641 47.484 59.4809 47.484C59.7299 47.484 59.9478 47.57 60.0957 47.7342C60.2513 47.8749 60.3291 48.086 60.3291 48.3361C60.3291 48.6019 60.228 48.8052 60.0334 48.9772C59.8466 49.1414 59.5587 49.2273 59.1774 49.2273H59.0061V47.5544L59.0139 47.5466Z" fill="black"></path>
  <path d="M52.3366 51.1427C52.0876 51.1193 51.9397 51.0802 51.8619 51.0176C51.7997 50.9551 51.753 50.8925 51.753 50.8144C51.753 50.7284 51.7997 50.5798 51.8775 50.3766L52.2277 49.5714H54.22L54.5157 50.2984C54.6169 50.5486 54.6714 50.7127 54.6714 50.8378C54.6714 50.916 54.6325 50.9785 54.5546 51.0489C54.4924 51.1036 54.3523 51.1349 54.1422 51.1505V51.2912H56.1734V51.1505C55.9633 51.1271 55.7998 51.088 55.6753 50.9864C55.5663 50.8847 55.4263 50.658 55.2862 50.3062L53.5196 46.0691H53.3795L51.5817 50.2671C51.4339 50.6346 51.286 50.8847 51.1615 51.0098C51.0992 51.0723 50.9669 51.1114 50.749 51.1583V51.2991H52.3444V51.1583L52.3366 51.1427ZM53.2316 47.2339L54.1032 49.2821H52.3366L53.2316 47.2339Z" fill="black"></path>
</svg>
